<?xml version="1.0" encoding="UTF-8" standalone="no"?>
<!DOCTYPE svg PUBLIC "-//W3C//DTD SVG 1.1//EN"
 "http://www.w3.org/Graphics/SVG/1.1/DTD/svg11.dtd">
<!-- Generated by graphviz version 12.2.1 (20241206.2353)
 -->
<!-- Title: dfa Pages: 1 -->
<svg width="830pt" height="1179pt"
 viewBox="0.00 0.00 830.16 1179.00" xmlns="http://www.w3.org/2000/svg" xmlns:xlink="http://www.w3.org/1999/xlink">
<g id="graph0" class="graph" transform="scale(1 1) rotate(0) translate(4 1175)">
<title>dfa</title>
<polygon fill="white" stroke="none" points="-4,4 -4,-1175 826.16,-1175 826.16,4 -4,4"/>
<!-- 999999 -->
<g id="node1" class="node">
<title>999999</title>
<text text-anchor="middle" x="421" y="-1147.95" font-family="Times New Roman,serif" font-size="14.00">((00|11)*((01|10)(00|11)*(01|10)(00|11)*)*)1((00|11)*((01|10)(00|11)*(01|10)(00|11)*)*)</text>
</g>
<!-- 0 -->
<g id="node2" class="node">
<title>0</title>
<ellipse fill="none" stroke="black" cx="421" cy="-1080" rx="27" ry="18"/>
<text text-anchor="middle" x="421" y="-1074.95" font-family="Times New Roman,serif" font-size="14.00">0</text>
</g>
<!-- 999999&#45;&gt;0 -->
<g id="edge1" class="edge">
<title>999999&#45;&gt;0</title>
<path fill="none" stroke="black" d="M421,-1135.17C421,-1127.56 421,-1118.35 421,-1109.7"/>
<polygon fill="black" stroke="black" points="424.5,-1109.96 421,-1099.96 417.5,-1109.96 424.5,-1109.96"/>
</g>
<!-- 2 -->
<g id="node4" class="node">
<title>2</title>
<ellipse fill="none" stroke="black" cx="355" cy="-991.5" rx="27" ry="18"/>
<text text-anchor="middle" x="355" y="-986.45" font-family="Times New Roman,serif" font-size="14.00">2</text>
</g>
<!-- 0&#45;&gt;2 -->
<g id="edge10" class="edge">
<title>0&#45;&gt;2</title>
<path fill="none" stroke="black" d="M409.2,-1063.54C399.31,-1050.58 385.02,-1031.85 373.6,-1016.88"/>
<polygon fill="black" stroke="black" points="376.69,-1015.15 367.84,-1009.33 371.12,-1019.4 376.69,-1015.15"/>
<text text-anchor="middle" x="397.29" y="-1030.7" font-family="Times New Roman,serif" font-size="14.00">1</text>
</g>
<!-- 1 -->
<g id="node17" class="node">
<title>1</title>
<ellipse fill="none" stroke="black" cx="451" cy="-991.5" rx="27" ry="18"/>
<text text-anchor="middle" x="451" y="-986.45" font-family="Times New Roman,serif" font-size="14.00">1</text>
</g>
<!-- 0&#45;&gt;1 -->
<g id="edge9" class="edge">
<title>0&#45;&gt;1</title>
<path fill="none" stroke="black" d="M426.78,-1062.32C430.95,-1050.31 436.66,-1033.84 441.49,-1019.91"/>
<polygon fill="black" stroke="black" points="444.67,-1021.45 444.64,-1010.85 438.05,-1019.15 444.67,-1021.45"/>
<text text-anchor="middle" x="442.06" y="-1030.7" font-family="Times New Roman,serif" font-size="14.00">0</text>
</g>
<!-- 1000000 -->
<!-- 2&#45;&gt;1000000 -->
<g id="edge2" class="edge">
<title>2&#45;&gt;1000000</title>
<path fill="none" stroke="black" d="M369.53,-976.22C382.92,-963.06 403.04,-943.28 418.84,-927.75"/>
<polygon fill="black" stroke="black" points="420.89,-930.64 425.57,-921.13 415.99,-925.65 420.89,-930.64"/>
</g>
<!-- 4 -->
<g id="node19" class="node">
<title>4</title>
<ellipse fill="none" stroke="black" cx="355" cy="-903" rx="27" ry="18"/>
<text text-anchor="middle" x="355" y="-897.95" font-family="Times New Roman,serif" font-size="14.00">4</text>
</g>
<!-- 2&#45;&gt;4 -->
<g id="edge13" class="edge">
<title>2&#45;&gt;4</title>
<path fill="none" stroke="black" d="M355,-973.41C355,-961.76 355,-946.05 355,-932.52"/>
<polygon fill="black" stroke="black" points="358.5,-932.86 355,-922.86 351.5,-932.86 358.5,-932.86"/>
<text text-anchor="middle" x="358.38" y="-942.2" font-family="Times New Roman,serif" font-size="14.00">0</text>
</g>
<!-- 5 -->
<g id="node20" class="node">
<title>5</title>
<ellipse fill="none" stroke="black" cx="283" cy="-903" rx="27" ry="18"/>
<text text-anchor="middle" x="283" y="-897.95" font-family="Times New Roman,serif" font-size="14.00">5</text>
</g>
<!-- 2&#45;&gt;5 -->
<g id="edge14" class="edge">
<title>2&#45;&gt;5</title>
<path fill="none" stroke="black" d="M342.46,-975.43C331.48,-962.24 315.34,-942.86 302.65,-927.61"/>
<polygon fill="black" stroke="black" points="305.7,-925.79 296.61,-920.35 300.32,-930.27 305.7,-925.79"/>
<text text-anchor="middle" x="328.82" y="-942.2" font-family="Times New Roman,serif" font-size="14.00">1</text>
</g>
<!-- 1000001 -->
<!-- 8 -->
<g id="node6" class="node">
<title>8</title>
<ellipse fill="none" stroke="black" cx="358" cy="-814.5" rx="27" ry="18"/>
<text text-anchor="middle" x="358" y="-809.45" font-family="Times New Roman,serif" font-size="14.00">8</text>
</g>
<!-- 8&#45;&gt;1000001 -->
<g id="edge3" class="edge">
<title>8&#45;&gt;1000001</title>
<path fill="none" stroke="black" d="M346.74,-798.04C337.56,-785.44 324.42,-767.39 313.67,-752.64"/>
<polygon fill="black" stroke="black" points="316.63,-750.75 307.91,-744.73 310.97,-754.88 316.63,-750.75"/>
</g>
<!-- 8&#45;&gt;4 -->
<g id="edge25" class="edge">
<title>8&#45;&gt;4</title>
<path fill="none" stroke="black" d="M357.4,-832.85C356.99,-844.56 356.45,-860.29 355.98,-873.78"/>
<polygon fill="black" stroke="black" points="352.49,-873.28 355.65,-883.4 359.49,-873.53 352.49,-873.28"/>
<text text-anchor="middle" x="360.14" y="-853.7" font-family="Times New Roman,serif" font-size="14.00">0</text>
</g>
<!-- 12 -->
<g id="node26" class="node">
<title>12</title>
<ellipse fill="none" stroke="black" cx="383" cy="-726" rx="27" ry="18"/>
<text text-anchor="middle" x="383" y="-720.95" font-family="Times New Roman,serif" font-size="14.00">12</text>
</g>
<!-- 8&#45;&gt;12 -->
<g id="edge26" class="edge">
<title>8&#45;&gt;12</title>
<path fill="none" stroke="black" d="M362.94,-796.41C366.36,-784.56 371,-768.52 374.95,-754.84"/>
<polygon fill="black" stroke="black" points="378.24,-756.09 377.65,-745.51 371.51,-754.14 378.24,-756.09"/>
<text text-anchor="middle" x="376.11" y="-765.2" font-family="Times New Roman,serif" font-size="14.00">1</text>
</g>
<!-- 1000002 -->
<!-- 17 -->
<g id="node8" class="node">
<title>17</title>
<ellipse fill="none" stroke="black" cx="438" cy="-637.5" rx="27" ry="18"/>
<text text-anchor="middle" x="438" y="-632.45" font-family="Times New Roman,serif" font-size="14.00">17</text>
</g>
<!-- 17&#45;&gt;1000002 -->
<g id="edge4" class="edge">
<title>17&#45;&gt;1000002</title>
<path fill="none" stroke="black" d="M463.83,-631.87C485.04,-628.18 515.9,-623.05 543,-619.5 622.28,-609.11 648.91,-633.92 722,-601.5 735.72,-595.42 748.38,-584.73 758.28,-574.67"/>
<polygon fill="black" stroke="black" points="760.62,-577.29 764.87,-567.58 755.49,-572.52 760.62,-577.29"/>
</g>
<!-- 17&#45;&gt;4 -->
<g id="edge43" class="edge">
<title>17&#45;&gt;4</title>
<path fill="none" stroke="black" d="M436.09,-655.7C431.83,-690.29 419.81,-770.3 394,-832.5 387.72,-847.63 378.91,-863.62 371.26,-876.45"/>
<polygon fill="black" stroke="black" points="368.45,-874.33 366.22,-884.69 374.42,-877.98 368.45,-874.33"/>
<text text-anchor="middle" x="419.84" y="-765.2" font-family="Times New Roman,serif" font-size="14.00">0</text>
</g>
<!-- 17&#45;&gt;12 -->
<g id="edge44" class="edge">
<title>17&#45;&gt;12</title>
<path fill="none" stroke="black" d="M427.79,-654.56C419.74,-667.21 408.37,-685.09 399.1,-699.67"/>
<polygon fill="black" stroke="black" points="396.31,-697.54 393.9,-707.86 402.22,-701.3 396.31,-697.54"/>
<text text-anchor="middle" x="418.8" y="-676.7" font-family="Times New Roman,serif" font-size="14.00">1</text>
</g>
<!-- 1000003 -->
<!-- 19 -->
<g id="node10" class="node">
<title>19</title>
<ellipse fill="none" stroke="black" cx="521" cy="-460.5" rx="27" ry="18"/>
<text text-anchor="middle" x="521" y="-455.45" font-family="Times New Roman,serif" font-size="14.00">19</text>
</g>
<!-- 19&#45;&gt;1000003 -->
<g id="edge5" class="edge">
<title>19&#45;&gt;1000003</title>
<path fill="none" stroke="black" d="M514.06,-442.82C509.09,-430.89 502.29,-414.55 496.52,-400.68"/>
<polygon fill="black" stroke="black" points="499.82,-399.5 492.75,-391.62 493.36,-402.19 499.82,-399.5"/>
</g>
<!-- 22 -->
<g id="node32" class="node">
<title>22</title>
<ellipse fill="none" stroke="black" cx="397" cy="-372" rx="27" ry="18"/>
<text text-anchor="middle" x="397" y="-366.95" font-family="Times New Roman,serif" font-size="14.00">22</text>
</g>
<!-- 19&#45;&gt;22 -->
<g id="edge47" class="edge">
<title>19&#45;&gt;22</title>
<path fill="none" stroke="black" d="M502.7,-446.74C481.98,-432.28 448,-408.58 424.18,-391.96"/>
<polygon fill="black" stroke="black" points="426.41,-389.25 416.21,-386.4 422.41,-394.99 426.41,-389.25"/>
<text text-anchor="middle" x="473.48" y="-411.2" font-family="Times New Roman,serif" font-size="14.00">0</text>
</g>
<!-- 23 -->
<g id="node33" class="node">
<title>23</title>
<ellipse fill="none" stroke="black" cx="621" cy="-195" rx="27" ry="18"/>
<text text-anchor="middle" x="621" y="-189.95" font-family="Times New Roman,serif" font-size="14.00">23</text>
</g>
<!-- 19&#45;&gt;23 -->
<g id="edge48" class="edge">
<title>19&#45;&gt;23</title>
<path fill="none" stroke="black" d="M542.43,-448.92C552.24,-443.02 563.19,-434.78 570,-424.5 591.7,-391.74 609.72,-278.09 617.23,-224.45"/>
<polygon fill="black" stroke="black" points="620.66,-225.25 618.55,-214.87 613.72,-224.3 620.66,-225.25"/>
<text text-anchor="middle" x="604.7" y="-322.7" font-family="Times New Roman,serif" font-size="14.00">1</text>
</g>
<!-- 1000004 -->
<!-- 20 -->
<g id="node12" class="node">
<title>20</title>
<ellipse fill="none" stroke="black" cx="312" cy="-106.5" rx="27" ry="18"/>
<text text-anchor="middle" x="312" y="-101.45" font-family="Times New Roman,serif" font-size="14.00">20</text>
</g>
<!-- 20&#45;&gt;1000004 -->
<g id="edge6" class="edge">
<title>20&#45;&gt;1000004</title>
<path fill="none" stroke="black" d="M301.76,-89.35C298.19,-83.5 294.27,-76.78 291,-70.5 287,-62.83 283.02,-54.31 279.53,-46.46"/>
<polygon fill="black" stroke="black" points="282.76,-45.1 275.56,-37.33 276.34,-47.9 282.76,-45.1"/>
</g>
<!-- 24 -->
<g id="node34" class="node">
<title>24</title>
<ellipse fill="none" stroke="black" cx="356" cy="-18" rx="27" ry="18"/>
<text text-anchor="middle" x="356" y="-12.95" font-family="Times New Roman,serif" font-size="14.00">24</text>
</g>
<!-- 20&#45;&gt;24 -->
<g id="edge49" class="edge">
<title>20&#45;&gt;24</title>
<path fill="none" stroke="black" d="M320.28,-89.23C326.51,-76.98 335.18,-59.93 342.42,-45.7"/>
<polygon fill="black" stroke="black" points="345.51,-47.34 346.93,-36.84 339.27,-44.17 345.51,-47.34"/>
<text text-anchor="middle" x="341.32" y="-57.2" font-family="Times New Roman,serif" font-size="14.00">0</text>
</g>
<!-- 25 -->
<g id="node35" class="node">
<title>25</title>
<ellipse fill="none" stroke="black" cx="555" cy="-18" rx="27" ry="18"/>
<text text-anchor="middle" x="555" y="-12.95" font-family="Times New Roman,serif" font-size="14.00">25</text>
</g>
<!-- 20&#45;&gt;25 -->
<g id="edge50" class="edge">
<title>20&#45;&gt;25</title>
<path fill="none" stroke="black" d="M335.3,-97.21C378.37,-81.87 470.62,-49.04 520.79,-31.18"/>
<polygon fill="black" stroke="black" points="521.74,-34.55 529.99,-27.9 519.39,-27.96 521.74,-34.55"/>
<text text-anchor="middle" x="458.64" y="-57.2" font-family="Times New Roman,serif" font-size="14.00">1</text>
</g>
<!-- 1000005 -->
<!-- 21 -->
<g id="node14" class="node">
<title>21</title>
<ellipse fill="none" stroke="black" cx="115" cy="-460.5" rx="27" ry="18"/>
<text text-anchor="middle" x="115" y="-455.45" font-family="Times New Roman,serif" font-size="14.00">21</text>
</g>
<!-- 21&#45;&gt;1000005 -->
<g id="edge7" class="edge">
<title>21&#45;&gt;1000005</title>
<path fill="none" stroke="black" d="M115,-442.41C115,-430.76 115,-415.05 115,-401.52"/>
<polygon fill="black" stroke="black" points="118.5,-401.86 115,-391.86 111.5,-401.86 118.5,-401.86"/>
</g>
<!-- 21&#45;&gt;22 -->
<g id="edge51" class="edge">
<title>21&#45;&gt;22</title>
<path fill="none" stroke="black" d="M138.18,-450.55C166.67,-439.72 216.61,-421.29 260.25,-408 293.89,-397.75 332.79,-388 360.47,-381.4"/>
<polygon fill="black" stroke="black" points="361.2,-384.82 370.13,-379.12 359.6,-378.01 361.2,-384.82"/>
<text text-anchor="middle" x="263.62" y="-411.2" font-family="Times New Roman,serif" font-size="14.00">0</text>
</g>
<!-- 26 -->
<g id="node36" class="node">
<title>26</title>
<ellipse fill="none" stroke="black" cx="27" cy="-372" rx="27" ry="18"/>
<text text-anchor="middle" x="27" y="-366.95" font-family="Times New Roman,serif" font-size="14.00">26</text>
</g>
<!-- 21&#45;&gt;26 -->
<g id="edge52" class="edge">
<title>21&#45;&gt;26</title>
<path fill="none" stroke="black" d="M95.48,-447.85C85.82,-441.59 74.33,-433.34 65.25,-424.5 57.25,-416.71 49.65,-407.12 43.36,-398.34"/>
<polygon fill="black" stroke="black" points="46.28,-396.4 37.73,-390.15 40.52,-400.37 46.28,-396.4"/>
<text text-anchor="middle" x="68.62" y="-411.2" font-family="Times New Roman,serif" font-size="14.00">1</text>
</g>
<!-- 1000006 -->
<!-- 27 -->
<g id="node16" class="node">
<title>27</title>
<ellipse fill="none" stroke="black" cx="437" cy="-283.5" rx="27" ry="18"/>
<text text-anchor="middle" x="437" y="-278.45" font-family="Times New Roman,serif" font-size="14.00">27</text>
</g>
<!-- 27&#45;&gt;1000006 -->
<g id="edge8" class="edge">
<title>27&#45;&gt;1000006</title>
<path fill="none" stroke="black" d="M437.2,-265.41C437.33,-253.76 437.51,-238.05 437.67,-224.52"/>
<polygon fill="black" stroke="black" points="441.17,-224.9 437.78,-214.86 434.17,-224.82 441.17,-224.9"/>
</g>
<!-- 27&#45;&gt;22 -->
<g id="edge63" class="edge">
<title>27&#45;&gt;22</title>
<path fill="none" stroke="black" d="M419.55,-297.69C413.01,-303.6 406.2,-311.14 402.25,-319.5 398.97,-326.43 397.3,-334.46 396.52,-342.09"/>
<polygon fill="black" stroke="black" points="393.03,-341.85 396.01,-352.02 400.02,-342.21 393.03,-341.85"/>
<text text-anchor="middle" x="405.62" y="-322.7" font-family="Times New Roman,serif" font-size="14.00">0</text>
</g>
<!-- 27&#45;&gt;23 -->
<g id="edge64" class="edge">
<title>27&#45;&gt;23</title>
<path fill="none" stroke="black" d="M463.41,-278.75C489.85,-274.2 531.1,-264.87 563,-247.5 576.49,-240.16 589.47,-229.13 599.72,-219.17"/>
<polygon fill="black" stroke="black" points="602.04,-221.8 606.58,-212.22 597.06,-216.88 602.04,-221.8"/>
<text text-anchor="middle" x="589.03" y="-234.2" font-family="Times New Roman,serif" font-size="14.00">1</text>
</g>
<!-- 1&#45;&gt;0 -->
<g id="edge11" class="edge">
<title>1&#45;&gt;0</title>
<path fill="none" stroke="black" d="M436.85,-1006.98C431.97,-1012.88 427.04,-1020.05 424.25,-1027.5 421.57,-1034.66 420.32,-1042.77 419.84,-1050.39"/>
<polygon fill="black" stroke="black" points="416.34,-1050.2 419.65,-1060.27 423.34,-1050.34 416.34,-1050.2"/>
<text text-anchor="middle" x="427.62" y="-1030.7" font-family="Times New Roman,serif" font-size="14.00">0</text>
</g>
<!-- 3 -->
<g id="node18" class="node">
<title>3</title>
<ellipse fill="none" stroke="black" cx="540" cy="-903" rx="27" ry="18"/>
<text text-anchor="middle" x="540" y="-897.95" font-family="Times New Roman,serif" font-size="14.00">3</text>
</g>
<!-- 1&#45;&gt;3 -->
<g id="edge12" class="edge">
<title>1&#45;&gt;3</title>
<path fill="none" stroke="black" d="M465.7,-976.22C479.74,-962.57 501.11,-941.8 517.33,-926.03"/>
<polygon fill="black" stroke="black" points="519.46,-928.84 524.2,-919.36 514.59,-923.82 519.46,-928.84"/>
<text text-anchor="middle" x="506.85" y="-942.2" font-family="Times New Roman,serif" font-size="14.00">1</text>
</g>
<!-- 6 -->
<g id="node21" class="node">
<title>6</title>
<ellipse fill="none" stroke="black" cx="493" cy="-814.5" rx="27" ry="18"/>
<text text-anchor="middle" x="493" y="-809.45" font-family="Times New Roman,serif" font-size="14.00">6</text>
</g>
<!-- 3&#45;&gt;6 -->
<g id="edge15" class="edge">
<title>3&#45;&gt;6</title>
<path fill="none" stroke="black" d="M516.7,-893.47C505.02,-887.86 491.97,-879.27 485.25,-867 481.29,-859.78 481.13,-851.18 482.57,-843.09"/>
<polygon fill="black" stroke="black" points="485.89,-844.23 485.05,-833.66 479.12,-842.45 485.89,-844.23"/>
<text text-anchor="middle" x="488.62" y="-853.7" font-family="Times New Roman,serif" font-size="14.00">0</text>
</g>
<!-- 7 -->
<g id="node22" class="node">
<title>7</title>
<ellipse fill="none" stroke="black" cx="565" cy="-814.5" rx="27" ry="18"/>
<text text-anchor="middle" x="565" y="-809.45" font-family="Times New Roman,serif" font-size="14.00">7</text>
</g>
<!-- 3&#45;&gt;7 -->
<g id="edge16" class="edge">
<title>3&#45;&gt;7</title>
<path fill="none" stroke="black" d="M539.99,-884.95C540.41,-874.74 541.71,-861.63 545.25,-850.5 546.24,-847.38 547.53,-844.23 548.98,-841.17"/>
<polygon fill="black" stroke="black" points="551.94,-843.05 553.58,-832.58 545.77,-839.74 551.94,-843.05"/>
<text text-anchor="middle" x="548.62" y="-853.7" font-family="Times New Roman,serif" font-size="14.00">1</text>
</g>
<!-- 4&#45;&gt;8 -->
<g id="edge17" class="edge">
<title>4&#45;&gt;8</title>
<path fill="none" stroke="black" d="M343.33,-886.44C337.19,-876.34 331.6,-862.8 335.25,-850.5 336.3,-846.96 337.84,-843.44 339.62,-840.07"/>
<polygon fill="black" stroke="black" points="342.42,-842.2 344.69,-831.85 336.46,-838.52 342.42,-842.2"/>
<text text-anchor="middle" x="338.62" y="-853.7" font-family="Times New Roman,serif" font-size="14.00">0</text>
</g>
<!-- 9 -->
<g id="node23" class="node">
<title>9</title>
<ellipse fill="none" stroke="black" cx="287" cy="-283.5" rx="27" ry="18"/>
<text text-anchor="middle" x="287" y="-278.45" font-family="Times New Roman,serif" font-size="14.00">9</text>
</g>
<!-- 4&#45;&gt;9 -->
<g id="edge18" class="edge">
<title>4&#45;&gt;9</title>
<path fill="none" stroke="black" d="M334.53,-890.94C297.69,-870.7 224,-828.58 224,-815.5 224,-815.5 224,-815.5 224,-371 224,-344.34 243.8,-320.38 261.2,-304.48"/>
<polygon fill="black" stroke="black" points="263.03,-307.52 268.31,-298.34 258.45,-302.23 263.03,-307.52"/>
<text text-anchor="middle" x="227.38" y="-588.2" font-family="Times New Roman,serif" font-size="14.00">1</text>
</g>
<!-- 5&#45;&gt;2 -->
<g id="edge20" class="edge">
<title>5&#45;&gt;2</title>
<path fill="none" stroke="black" d="M286.53,-921.12C289.39,-931.84 294.29,-945.49 302.25,-955.5 308.07,-962.82 315.84,-969.14 323.63,-974.32"/>
<polygon fill="black" stroke="black" points="321.71,-977.25 332.07,-979.46 325.36,-971.27 321.71,-977.25"/>
<text text-anchor="middle" x="305.62" y="-942.2" font-family="Times New Roman,serif" font-size="14.00">1</text>
</g>
<!-- 10 -->
<g id="node24" class="node">
<title>10</title>
<ellipse fill="none" stroke="black" cx="157" cy="-637.5" rx="27" ry="18"/>
<text text-anchor="middle" x="157" y="-632.45" font-family="Times New Roman,serif" font-size="14.00">10</text>
</g>
<!-- 5&#45;&gt;10 -->
<g id="edge19" class="edge">
<title>5&#45;&gt;10</title>
<path fill="none" stroke="black" d="M257.8,-895.97C241.81,-890.86 221.96,-881.91 210,-867 162.65,-807.94 156.12,-714.17 156.09,-667.24"/>
<polygon fill="black" stroke="black" points="159.59,-667.39 156.2,-657.35 152.59,-667.31 159.59,-667.39"/>
<text text-anchor="middle" x="171.97" y="-765.2" font-family="Times New Roman,serif" font-size="14.00">0</text>
</g>
<!-- 6&#45;&gt;3 -->
<g id="edge21" class="edge">
<title>6&#45;&gt;3</title>
<path fill="none" stroke="black" d="M501.8,-831.7C508.55,-844.12 518.01,-861.52 525.82,-875.91"/>
<polygon fill="black" stroke="black" points="522.59,-877.28 530.44,-884.4 528.74,-873.94 522.59,-877.28"/>
<text text-anchor="middle" x="524.08" y="-853.7" font-family="Times New Roman,serif" font-size="14.00">0</text>
</g>
<!-- 11 -->
<g id="node25" class="node">
<title>11</title>
<ellipse fill="none" stroke="black" cx="549" cy="-726" rx="27" ry="18"/>
<text text-anchor="middle" x="549" y="-720.95" font-family="Times New Roman,serif" font-size="14.00">11</text>
</g>
<!-- 6&#45;&gt;11 -->
<g id="edge22" class="edge">
<title>6&#45;&gt;11</title>
<path fill="none" stroke="black" d="M503.27,-797.63C511.43,-785.03 523,-767.16 532.46,-752.55"/>
<polygon fill="black" stroke="black" points="535.29,-754.62 537.78,-744.33 529.41,-750.82 535.29,-754.62"/>
<text text-anchor="middle" x="529.39" y="-765.2" font-family="Times New Roman,serif" font-size="14.00">1</text>
</g>
<!-- 7&#45;&gt;3 -->
<g id="edge24" class="edge">
<title>7&#45;&gt;3</title>
<path fill="none" stroke="black" d="M560.07,-832.55C556.65,-844.39 552.01,-860.43 548.06,-874.12"/>
<polygon fill="black" stroke="black" points="544.77,-872.88 545.36,-883.46 551.5,-874.82 544.77,-872.88"/>
<text text-anchor="middle" x="558.11" y="-853.7" font-family="Times New Roman,serif" font-size="14.00">1</text>
</g>
<!-- 7&#45;&gt;11 -->
<g id="edge23" class="edge">
<title>7&#45;&gt;11</title>
<path fill="none" stroke="black" d="M561.84,-796.41C559.68,-784.76 556.78,-769.05 554.28,-755.52"/>
<polygon fill="black" stroke="black" points="557.75,-755.04 552.48,-745.84 550.86,-756.31 557.75,-755.04"/>
<text text-anchor="middle" x="561.81" y="-765.2" font-family="Times New Roman,serif" font-size="14.00">0</text>
</g>
<!-- 13 -->
<g id="node27" class="node">
<title>13</title>
<ellipse fill="none" stroke="black" cx="287" cy="-549" rx="27" ry="18"/>
<text text-anchor="middle" x="287" y="-543.95" font-family="Times New Roman,serif" font-size="14.00">13</text>
</g>
<!-- 9&#45;&gt;13 -->
<g id="edge27" class="edge">
<title>9&#45;&gt;13</title>
<path fill="none" stroke="black" d="M287,-301.85C287,-346.31 287,-464.64 287,-519.43"/>
<polygon fill="black" stroke="black" points="283.5,-519.2 287,-529.2 290.5,-519.2 283.5,-519.2"/>
<text text-anchor="middle" x="290.38" y="-411.2" font-family="Times New Roman,serif" font-size="14.00">0</text>
</g>
<!-- 14 -->
<g id="node28" class="node">
<title>14</title>
<ellipse fill="none" stroke="black" cx="312" cy="-195" rx="27" ry="18"/>
<text text-anchor="middle" x="312" y="-189.95" font-family="Times New Roman,serif" font-size="14.00">14</text>
</g>
<!-- 9&#45;&gt;14 -->
<g id="edge28" class="edge">
<title>9&#45;&gt;14</title>
<path fill="none" stroke="black" d="M291.94,-265.41C295.36,-253.56 300,-237.52 303.95,-223.84"/>
<polygon fill="black" stroke="black" points="307.24,-225.09 306.65,-214.51 300.51,-223.14 307.24,-225.09"/>
<text text-anchor="middle" x="305.11" y="-234.2" font-family="Times New Roman,serif" font-size="14.00">1</text>
</g>
<!-- 10&#45;&gt;14 -->
<g id="edge30" class="edge">
<title>10&#45;&gt;14</title>
<path fill="none" stroke="black" d="M166.02,-620.14C174.53,-603.14 186,-575.5 186,-550 186,-550 186,-550 186,-282.5 186,-238.74 238.3,-215.46 275.51,-204.44"/>
<polygon fill="black" stroke="black" points="276.34,-207.84 285.04,-201.8 274.47,-201.09 276.34,-207.84"/>
<text text-anchor="middle" x="189.38" y="-411.2" font-family="Times New Roman,serif" font-size="14.00">1</text>
</g>
<!-- 15 -->
<g id="node29" class="node">
<title>15</title>
<ellipse fill="none" stroke="black" cx="127" cy="-549" rx="27" ry="18"/>
<text text-anchor="middle" x="127" y="-543.95" font-family="Times New Roman,serif" font-size="14.00">15</text>
</g>
<!-- 10&#45;&gt;15 -->
<g id="edge29" class="edge">
<title>10&#45;&gt;15</title>
<path fill="none" stroke="black" d="M142.85,-622.02C137.97,-616.12 133.04,-608.95 130.25,-601.5 127.57,-594.34 126.32,-586.23 125.84,-578.61"/>
<polygon fill="black" stroke="black" points="129.34,-578.66 125.65,-568.73 122.34,-578.8 129.34,-578.66"/>
<text text-anchor="middle" x="133.62" y="-588.2" font-family="Times New Roman,serif" font-size="14.00">0</text>
</g>
<!-- 11&#45;&gt;17 -->
<g id="edge32" class="edge">
<title>11&#45;&gt;17</title>
<path fill="none" stroke="black" d="M532.14,-711.86C514.05,-697.76 485.08,-675.19 464.05,-658.8"/>
<polygon fill="black" stroke="black" points="466.25,-656.08 456.21,-652.69 461.95,-661.6 466.25,-656.08"/>
<text text-anchor="middle" x="506.82" y="-676.7" font-family="Times New Roman,serif" font-size="14.00">1</text>
</g>
<!-- 16 -->
<g id="node30" class="node">
<title>16</title>
<ellipse fill="none" stroke="black" cx="579" cy="-637.5" rx="27" ry="18"/>
<text text-anchor="middle" x="579" y="-632.45" font-family="Times New Roman,serif" font-size="14.00">16</text>
</g>
<!-- 11&#45;&gt;16 -->
<g id="edge31" class="edge">
<title>11&#45;&gt;16</title>
<path fill="none" stroke="black" d="M554.78,-708.32C558.95,-696.31 564.66,-679.84 569.49,-665.91"/>
<polygon fill="black" stroke="black" points="572.67,-667.45 572.64,-656.85 566.05,-665.15 572.67,-667.45"/>
<text text-anchor="middle" x="570.06" y="-676.7" font-family="Times New Roman,serif" font-size="14.00">0</text>
</g>
<!-- 12&#45;&gt;17 -->
<g id="edge34" class="edge">
<title>12&#45;&gt;17</title>
<path fill="none" stroke="black" d="M380.85,-707.67C380.37,-697.12 381.32,-683.75 387.25,-673.5 391.77,-665.68 398.83,-659.22 406.25,-654.06"/>
<polygon fill="black" stroke="black" points="407.74,-657.26 414.41,-649.02 404.06,-651.3 407.74,-657.26"/>
<text text-anchor="middle" x="390.62" y="-676.7" font-family="Times New Roman,serif" font-size="14.00">1</text>
</g>
<!-- 18 -->
<g id="node31" class="node">
<title>18</title>
<ellipse fill="none" stroke="black" cx="345" cy="-637.5" rx="27" ry="18"/>
<text text-anchor="middle" x="345" y="-632.45" font-family="Times New Roman,serif" font-size="14.00">18</text>
</g>
<!-- 12&#45;&gt;18 -->
<g id="edge33" class="edge">
<title>12&#45;&gt;18</title>
<path fill="none" stroke="black" d="M368.85,-710.38C363.85,-704.47 358.64,-697.32 355.25,-690 351.94,-682.86 349.7,-674.68 348.18,-666.97"/>
<polygon fill="black" stroke="black" points="351.68,-666.64 346.63,-657.32 344.77,-667.75 351.68,-666.64"/>
<text text-anchor="middle" x="358.62" y="-676.7" font-family="Times New Roman,serif" font-size="14.00">0</text>
</g>
<!-- 13&#45;&gt;19 -->
<g id="edge36" class="edge">
<title>13&#45;&gt;19</title>
<path fill="none" stroke="black" d="M310.29,-539.39C351.9,-524.01 439.15,-491.76 487.3,-473.96"/>
<polygon fill="black" stroke="black" points="488.22,-477.35 496.38,-470.6 485.79,-470.78 488.22,-477.35"/>
<text text-anchor="middle" x="428.33" y="-499.7" font-family="Times New Roman,serif" font-size="14.00">1</text>
</g>
<!-- 13&#45;&gt;18 -->
<g id="edge35" class="edge">
<title>13&#45;&gt;18</title>
<path fill="none" stroke="black" d="M284.75,-567.39C284.24,-577.96 285.18,-591.33 291.25,-601.5 296.24,-609.86 304.09,-616.6 312.27,-621.84"/>
<polygon fill="black" stroke="black" points="310.49,-624.85 320.92,-626.75 313.95,-618.77 310.49,-624.85"/>
<text text-anchor="middle" x="294.62" y="-588.2" font-family="Times New Roman,serif" font-size="14.00">0</text>
</g>
<!-- 14&#45;&gt;20 -->
<g id="edge37" class="edge">
<title>14&#45;&gt;20</title>
<path fill="none" stroke="black" d="M312,-176.91C312,-165.26 312,-149.55 312,-136.02"/>
<polygon fill="black" stroke="black" points="315.5,-136.36 312,-126.36 308.5,-136.36 315.5,-136.36"/>
<text text-anchor="middle" x="315.38" y="-145.7" font-family="Times New Roman,serif" font-size="14.00">0</text>
</g>
<!-- 14&#45;&gt;9 -->
<g id="edge38" class="edge">
<title>14&#45;&gt;9</title>
<path fill="none" stroke="black" d="M298.42,-210.91C293.97,-216.75 289.57,-223.77 287.25,-231 284.92,-238.26 284.12,-246.41 284.08,-254.03"/>
<polygon fill="black" stroke="black" points="280.58,-254.04 284.48,-263.89 287.57,-253.75 280.58,-254.04"/>
<text text-anchor="middle" x="290.62" y="-234.2" font-family="Times New Roman,serif" font-size="14.00">1</text>
</g>
<!-- 15&#45;&gt;21 -->
<g id="edge40" class="edge">
<title>15&#45;&gt;21</title>
<path fill="none" stroke="black" d="M124.63,-530.91C123.01,-519.26 120.83,-503.55 118.96,-490.02"/>
<polygon fill="black" stroke="black" points="122.46,-489.77 117.61,-480.35 115.52,-490.74 122.46,-489.77"/>
<text text-anchor="middle" x="125.45" y="-499.7" font-family="Times New Roman,serif" font-size="14.00">1</text>
</g>
<!-- 15&#45;&gt;10 -->
<g id="edge39" class="edge">
<title>15&#45;&gt;10</title>
<path fill="none" stroke="black" d="M132.87,-566.92C137.01,-578.87 142.66,-595.15 147.45,-608.95"/>
<polygon fill="black" stroke="black" points="144.14,-610.09 150.72,-618.39 150.75,-607.8 144.14,-610.09"/>
<text text-anchor="middle" x="148.06" y="-588.2" font-family="Times New Roman,serif" font-size="14.00">0</text>
</g>
<!-- 16&#45;&gt;3 -->
<g id="edge42" class="edge">
<title>16&#45;&gt;3</title>
<path fill="none" stroke="black" d="M585.92,-655.23C599.08,-689.64 624.42,-770.33 601,-832.5 593.85,-851.48 578.9,-868.65 565.6,-881.18"/>
<polygon fill="black" stroke="black" points="563.43,-878.42 558.31,-887.7 568.1,-883.64 563.43,-878.42"/>
<text text-anchor="middle" x="613.93" y="-765.2" font-family="Times New Roman,serif" font-size="14.00">1</text>
</g>
<!-- 16&#45;&gt;11 -->
<g id="edge41" class="edge">
<title>16&#45;&gt;11</title>
<path fill="none" stroke="black" d="M564.85,-652.98C559.97,-658.88 555.04,-666.05 552.25,-673.5 549.57,-680.66 548.32,-688.77 547.84,-696.39"/>
<polygon fill="black" stroke="black" points="544.34,-696.2 547.65,-706.27 551.34,-696.34 544.34,-696.2"/>
<text text-anchor="middle" x="555.62" y="-676.7" font-family="Times New Roman,serif" font-size="14.00">0</text>
</g>
<!-- 18&#45;&gt;13 -->
<g id="edge45" class="edge">
<title>18&#45;&gt;13</title>
<path fill="none" stroke="black" d="M334.36,-620.63C325.86,-607.95 313.78,-589.94 303.95,-575.27"/>
<polygon fill="black" stroke="black" points="306.89,-573.38 298.41,-567.02 301.08,-577.28 306.89,-573.38"/>
<text text-anchor="middle" x="324.57" y="-588.2" font-family="Times New Roman,serif" font-size="14.00">0</text>
</g>
<!-- 18&#45;&gt;14 -->
<g id="edge46" class="edge">
<title>18&#45;&gt;14</title>
<path fill="none" stroke="black" d="M344.05,-619.27C343.17,-601.82 342,-574.04 342,-550 342,-550 342,-550 342,-282.5 342,-261.51 334.02,-239.15 326.28,-222.43"/>
<polygon fill="black" stroke="black" points="329.54,-221.12 321.99,-213.68 323.26,-224.2 329.54,-221.12"/>
<text text-anchor="middle" x="345.38" y="-411.2" font-family="Times New Roman,serif" font-size="14.00">1</text>
</g>
<!-- 22&#45;&gt;27 -->
<g id="edge53" class="edge">
<title>22&#45;&gt;27</title>
<path fill="none" stroke="black" d="M404.71,-354.32C410.36,-342.12 418.13,-325.3 424.64,-311.23"/>
<polygon fill="black" stroke="black" points="427.66,-313.05 428.68,-302.5 421.3,-310.11 427.66,-313.05"/>
<text text-anchor="middle" x="423.96" y="-322.7" font-family="Times New Roman,serif" font-size="14.00">0</text>
</g>
<!-- 22&#45;&gt;9 -->
<g id="edge54" class="edge">
<title>22&#45;&gt;9</title>
<path fill="none" stroke="black" d="M380.29,-357.86C362.36,-343.76 333.66,-321.19 312.82,-304.8"/>
<polygon fill="black" stroke="black" points="315.08,-302.13 305.05,-298.7 310.75,-307.63 315.08,-302.13"/>
<text text-anchor="middle" x="355.23" y="-322.7" font-family="Times New Roman,serif" font-size="14.00">1</text>
</g>
<!-- 23&#45;&gt;19 -->
<g id="edge56" class="edge">
<title>23&#45;&gt;19</title>
<path fill="none" stroke="black" d="M621.63,-213.29C622.4,-247.72 621.75,-326.94 603,-390 598.23,-406.03 599.39,-412.26 588,-424.5 579.03,-434.13 566.8,-441.59 555.25,-447.1"/>
<polygon fill="black" stroke="black" points="554.08,-443.79 546.33,-451.01 556.89,-450.2 554.08,-443.79"/>
<text text-anchor="middle" x="620.23" y="-322.7" font-family="Times New Roman,serif" font-size="14.00">1</text>
</g>
<!-- 23&#45;&gt;18 -->
<g id="edge55" class="edge">
<title>23&#45;&gt;18</title>
<path fill="none" stroke="black" d="M635.44,-210.52C649.89,-226.66 670,-254.19 670,-282.5 670,-550 670,-550 670,-550 670,-673.05 520.53,-586.47 402,-619.5 394.95,-621.46 387.43,-623.64 380.25,-625.77"/>
<polygon fill="black" stroke="black" points="379.38,-622.38 370.8,-628.59 381.39,-629.08 379.38,-622.38"/>
<text text-anchor="middle" x="673.38" y="-411.2" font-family="Times New Roman,serif" font-size="14.00">0</text>
</g>
<!-- 24&#45;&gt;20 -->
<g id="edge57" class="edge">
<title>24&#45;&gt;20</title>
<path fill="none" stroke="black" d="M338.1,-31.76C331.09,-37.71 323.68,-45.38 319.25,-54 315.63,-61.04 313.64,-69.3 312.59,-77.11"/>
<polygon fill="black" stroke="black" points="309.11,-76.65 311.75,-86.91 316.09,-77.24 309.11,-76.65"/>
<text text-anchor="middle" x="322.62" y="-57.2" font-family="Times New Roman,serif" font-size="14.00">0</text>
</g>
<!-- 24&#45;&gt;9 -->
<g id="edge58" class="edge">
<title>24&#45;&gt;9</title>
<path fill="none" stroke="black" d="M358.97,-36.13C364.24,-70.94 372.49,-151.82 348,-213 340.46,-231.83 325.51,-249 312.3,-261.56"/>
<polygon fill="black" stroke="black" points="310.14,-258.8 305.08,-268.11 314.84,-263.98 310.14,-258.8"/>
<text text-anchor="middle" x="366.64" y="-145.7" font-family="Times New Roman,serif" font-size="14.00">1</text>
</g>
<!-- 25&#45;&gt;19 -->
<g id="edge60" class="edge">
<title>25&#45;&gt;19</title>
<path fill="none" stroke="black" d="M555.25,-36.49C555.78,-89.8 555.68,-254.9 537,-390 535.08,-403.9 531.72,-419.11 528.58,-431.75"/>
<polygon fill="black" stroke="black" points="525.29,-430.5 526.18,-441.05 532.07,-432.25 525.29,-430.5"/>
<text text-anchor="middle" x="554.49" y="-234.2" font-family="Times New Roman,serif" font-size="14.00">1</text>
</g>
<!-- 25&#45;&gt;18 -->
<g id="edge59" class="edge">
<title>25&#45;&gt;18</title>
<path fill="none" stroke="black" d="M581.65,-21.92C625.49,-28.37 708,-48.13 708,-105.5 708,-550 708,-550 708,-550 708,-577.67 697.02,-587.75 673,-601.5 620.63,-631.49 461.4,-608.81 402,-619.5 394.58,-620.84 386.75,-622.79 379.35,-624.91"/>
<polygon fill="black" stroke="black" points="378.57,-621.49 370.01,-627.74 380.6,-628.19 378.57,-621.49"/>
<text text-anchor="middle" x="711.38" y="-322.7" font-family="Times New Roman,serif" font-size="14.00">0</text>
</g>
<!-- 26&#45;&gt;21 -->
<g id="edge62" class="edge">
<title>26&#45;&gt;21</title>
<path fill="none" stroke="black" d="M44.78,-385.9C53.06,-392.21 62.85,-400.14 71,-408 79.66,-416.37 88.44,-426.28 95.85,-435.17"/>
<polygon fill="black" stroke="black" points="93.02,-437.24 102.06,-442.77 98.45,-432.81 93.02,-437.24"/>
<text text-anchor="middle" x="89.77" y="-411.2" font-family="Times New Roman,serif" font-size="14.00">1</text>
</g>
<!-- 26&#45;&gt;10 -->
<g id="edge61" class="edge">
<title>26&#45;&gt;10</title>
<path fill="none" stroke="black" d="M30.21,-390.33C37.24,-425.51 56.23,-507.01 91,-567 101.71,-585.48 118.27,-602.9 132.13,-615.68"/>
<polygon fill="black" stroke="black" points="129.41,-617.94 139.2,-621.99 134.07,-612.72 129.41,-617.94"/>
<text text-anchor="middle" x="68.63" y="-499.7" font-family="Times New Roman,serif" font-size="14.00">0</text>
</g>
</g>
</svg>
