<?xml version="1.0" encoding="UTF-8" standalone="no"?>
<!DOCTYPE svg PUBLIC "-//W3C//DTD SVG 1.1//EN"
 "http://www.w3.org/Graphics/SVG/1.1/DTD/svg11.dtd">
<!-- Generated by graphviz version 12.2.1 (20241206.2353)
 -->
<!-- Title: ast Pages: 1 -->
<svg width="937pt" height="980pt"
 viewBox="0.00 0.00 936.78 980.00" xmlns="http://www.w3.org/2000/svg" xmlns:xlink="http://www.w3.org/1999/xlink">
<g id="graph0" class="graph" transform="scale(1 1) rotate(0) translate(4 976)">
<title>ast</title>
<polygon fill="white" stroke="none" points="-4,4 -4,-976 932.78,-976 932.78,4 -4,4"/>
<!-- p 0 -->
<g id="node1" class="node">
<title>p 0</title>
<ellipse fill="none" stroke="black" cx="243.86" cy="-954" rx="27" ry="18"/>
<text text-anchor="middle" x="243.86" y="-948.95" font-family="Times New Roman,serif" font-size="14.00">p 0</text>
</g>
<!-- b 0 -->
<g id="node2" class="node">
<title>b 0</title>
<ellipse fill="none" stroke="black" cx="243.86" cy="-882" rx="27" ry="18"/>
<text text-anchor="middle" x="243.86" y="-876.95" font-family="Times New Roman,serif" font-size="14.00">b 0</text>
</g>
<!-- p 0&#45;&gt;b 0 -->
<g id="edge1" class="edge">
<title>p 0&#45;&gt;b 0</title>
<path fill="none" stroke="black" d="M243.86,-935.7C243.86,-928.41 243.86,-919.73 243.86,-911.54"/>
<polygon fill="black" stroke="black" points="247.36,-911.62 243.86,-901.62 240.36,-911.62 247.36,-911.62"/>
</g>
<!-- s 0: { -->
<g id="node3" class="node">
<title>s 0: {</title>
<ellipse fill="none" stroke="black" cx="167.86" cy="-810" rx="31.39" ry="18"/>
<text text-anchor="middle" x="167.86" y="-804.95" font-family="Times New Roman,serif" font-size="14.00">s 0: {</text>
</g>
<!-- b 0&#45;&gt;s 0: { -->
<g id="edge2" class="edge">
<title>b 0&#45;&gt;s 0: {</title>
<path fill="none" stroke="black" d="M228.48,-866.83C218.07,-857.25 204.12,-844.4 192.22,-833.44"/>
<polygon fill="black" stroke="black" points="194.84,-831.1 185.11,-826.89 190.1,-836.24 194.84,-831.1"/>
</g>
<!-- ol 0 -->
<g id="node4" class="node">
<title>ol 0</title>
<ellipse fill="none" stroke="black" cx="243.86" cy="-810" rx="27" ry="18"/>
<text text-anchor="middle" x="243.86" y="-804.95" font-family="Times New Roman,serif" font-size="14.00">ol 0</text>
</g>
<!-- b 0&#45;&gt;ol 0 -->
<g id="edge3" class="edge">
<title>b 0&#45;&gt;ol 0</title>
<path fill="none" stroke="black" d="M243.86,-863.7C243.86,-856.41 243.86,-847.73 243.86,-839.54"/>
<polygon fill="black" stroke="black" points="247.36,-839.62 243.86,-829.62 240.36,-839.62 247.36,-839.62"/>
</g>
<!-- s 9: } -->
<g id="node58" class="node">
<title>s 9: }</title>
<ellipse fill="none" stroke="black" cx="319.86" cy="-810" rx="31.39" ry="18"/>
<text text-anchor="middle" x="319.86" y="-804.95" font-family="Times New Roman,serif" font-size="14.00">s 9: }</text>
</g>
<!-- b 0&#45;&gt;s 9: } -->
<g id="edge57" class="edge">
<title>b 0&#45;&gt;s 9: }</title>
<path fill="none" stroke="black" d="M259.24,-866.83C269.64,-857.25 283.59,-844.4 295.49,-833.44"/>
<polygon fill="black" stroke="black" points="297.61,-836.24 302.6,-826.89 292.87,-831.1 297.61,-836.24"/>
</g>
<!-- o 0 -->
<g id="node5" class="node">
<title>o 0</title>
<ellipse fill="none" stroke="black" cx="148.86" cy="-738" rx="27" ry="18"/>
<text text-anchor="middle" x="148.86" y="-732.95" font-family="Times New Roman,serif" font-size="14.00">o 0</text>
</g>
<!-- ol 0&#45;&gt;o 0 -->
<g id="edge4" class="edge">
<title>ol 0&#45;&gt;o 0</title>
<path fill="none" stroke="black" d="M226.43,-796.16C212.19,-785.67 191.83,-770.66 175.54,-758.66"/>
<polygon fill="black" stroke="black" points="177.84,-756.01 167.71,-752.89 173.68,-761.64 177.84,-756.01"/>
</g>
<!-- t 2 -->
<g id="node17" class="node">
<title>t 2</title>
<ellipse fill="none" stroke="black" cx="301.86" cy="-738" rx="27" ry="18"/>
<text text-anchor="middle" x="301.86" y="-732.95" font-family="Times New Roman,serif" font-size="14.00">t 2</text>
</g>
<!-- ol 0&#45;&gt;t 2 -->
<g id="edge16" class="edge">
<title>ol 0&#45;&gt;t 2</title>
<path fill="none" stroke="black" d="M256.44,-793.81C263.97,-784.73 273.69,-773 282.21,-762.72"/>
<polygon fill="black" stroke="black" points="284.64,-765.26 288.33,-755.32 279.25,-760.79 284.64,-765.26"/>
</g>
<!-- i 0: a -->
<g id="node6" class="node">
<title>i 0: a</title>
<ellipse fill="none" stroke="black" cx="29.86" cy="-666" rx="29.86" ry="18"/>
<text text-anchor="middle" x="29.86" y="-660.95" font-family="Times New Roman,serif" font-size="14.00">i 0: a</text>
</g>
<!-- o 0&#45;&gt;i 0: a -->
<g id="edge5" class="edge">
<title>o 0&#45;&gt;i 0: a</title>
<path fill="none" stroke="black" d="M128.94,-725.28C110.2,-714.26 81.89,-697.61 60.31,-684.92"/>
<polygon fill="black" stroke="black" points="62.34,-682.05 51.94,-679.99 58.79,-688.08 62.34,-682.05"/>
</g>
<!-- s 1: = -->
<g id="node7" class="node">
<title>s 1: =</title>
<ellipse fill="none" stroke="black" cx="109.86" cy="-666" rx="32.41" ry="18"/>
<text text-anchor="middle" x="109.86" y="-660.95" font-family="Times New Roman,serif" font-size="14.00">s 1: =</text>
</g>
<!-- o 0&#45;&gt;s 1: = -->
<g id="edge6" class="edge">
<title>o 0&#45;&gt;s 1: =</title>
<path fill="none" stroke="black" d="M139.81,-720.76C135.3,-712.67 129.72,-702.66 124.61,-693.49"/>
<polygon fill="black" stroke="black" points="127.78,-691.99 119.86,-684.96 121.67,-695.39 127.78,-691.99"/>
</g>
<!-- e 0 -->
<g id="node8" class="node">
<title>e 0</title>
<ellipse fill="none" stroke="black" cx="186.86" cy="-666" rx="27" ry="18"/>
<text text-anchor="middle" x="186.86" y="-660.95" font-family="Times New Roman,serif" font-size="14.00">e 0</text>
</g>
<!-- o 0&#45;&gt;e 0 -->
<g id="edge7" class="edge">
<title>o 0&#45;&gt;e 0</title>
<path fill="none" stroke="black" d="M157.67,-720.76C162.13,-712.55 167.65,-702.37 172.69,-693.09"/>
<polygon fill="black" stroke="black" points="175.67,-694.94 177.37,-684.48 169.52,-691.6 175.67,-694.94"/>
</g>
<!-- le 0 -->
<g id="node9" class="node">
<title>le 0</title>
<ellipse fill="none" stroke="black" cx="182.86" cy="-594" rx="27" ry="18"/>
<text text-anchor="middle" x="182.86" y="-588.95" font-family="Times New Roman,serif" font-size="14.00">le 0</text>
</g>
<!-- e 0&#45;&gt;le 0 -->
<g id="edge8" class="edge">
<title>e 0&#45;&gt;le 0</title>
<path fill="none" stroke="black" d="M185.87,-647.7C185.45,-640.41 184.95,-631.73 184.49,-623.54"/>
<polygon fill="black" stroke="black" points="187.98,-623.4 183.92,-613.62 181,-623.8 187.98,-623.4"/>
</g>
<!-- lm 0 -->
<g id="node10" class="node">
<title>lm 0</title>
<ellipse fill="none" stroke="black" cx="144.86" cy="-522" rx="28.32" ry="18"/>
<text text-anchor="middle" x="144.86" y="-516.95" font-family="Times New Roman,serif" font-size="14.00">lm 0</text>
</g>
<!-- le 0&#45;&gt;lm 0 -->
<g id="edge9" class="edge">
<title>le 0&#45;&gt;lm 0</title>
<path fill="none" stroke="black" d="M174.04,-576.76C169.58,-568.55 164.06,-558.37 159.02,-549.09"/>
<polygon fill="black" stroke="black" points="162.19,-547.6 154.34,-540.48 156.04,-550.94 162.19,-547.6"/>
</g>
<!-- le1 0 -->
<g id="node16" class="node">
<title>le1 0</title>
<ellipse fill="none" stroke="black" cx="220.86" cy="-522" rx="29.34" ry="18"/>
<text text-anchor="middle" x="220.86" y="-516.95" font-family="Times New Roman,serif" font-size="14.00">le1 0</text>
</g>
<!-- le 0&#45;&gt;le1 0 -->
<g id="edge15" class="edge">
<title>le 0&#45;&gt;le1 0</title>
<path fill="none" stroke="black" d="M191.67,-576.76C196.13,-568.55 201.65,-558.37 206.69,-549.09"/>
<polygon fill="black" stroke="black" points="209.67,-550.94 211.37,-540.48 203.52,-547.6 209.67,-550.94"/>
</g>
<!-- sle 0 -->
<g id="node11" class="node">
<title>sle 0</title>
<ellipse fill="none" stroke="black" cx="105.86" cy="-450" rx="28.32" ry="18"/>
<text text-anchor="middle" x="105.86" y="-444.95" font-family="Times New Roman,serif" font-size="14.00">sle 0</text>
</g>
<!-- lm 0&#45;&gt;sle 0 -->
<g id="edge10" class="edge">
<title>lm 0&#45;&gt;sle 0</title>
<path fill="none" stroke="black" d="M135.81,-504.76C131.23,-496.55 125.56,-486.37 120.39,-477.09"/>
<polygon fill="black" stroke="black" points="123.51,-475.5 115.59,-468.47 117.4,-478.91 123.51,-475.5"/>
</g>
<!-- lm1 0 -->
<g id="node15" class="node">
<title>lm1 0</title>
<ellipse fill="none" stroke="black" cx="184.86" cy="-450" rx="32.93" ry="18"/>
<text text-anchor="middle" x="184.86" y="-444.95" font-family="Times New Roman,serif" font-size="14.00">lm1 0</text>
</g>
<!-- lm 0&#45;&gt;lm1 0 -->
<g id="edge14" class="edge">
<title>lm 0&#45;&gt;lm1 0</title>
<path fill="none" stroke="black" d="M154.13,-504.76C158.76,-496.67 164.48,-486.66 169.72,-477.49"/>
<polygon fill="black" stroke="black" points="172.68,-479.37 174.6,-468.95 166.6,-475.89 172.68,-479.37"/>
</g>
<!-- ple 0 -->
<g id="node12" class="node">
<title>ple 0</title>
<ellipse fill="none" stroke="black" cx="105.86" cy="-378" rx="29.34" ry="18"/>
<text text-anchor="middle" x="105.86" y="-372.95" font-family="Times New Roman,serif" font-size="14.00">ple 0</text>
</g>
<!-- sle 0&#45;&gt;ple 0 -->
<g id="edge11" class="edge">
<title>sle 0&#45;&gt;ple 0</title>
<path fill="none" stroke="black" d="M105.86,-431.7C105.86,-424.41 105.86,-415.73 105.86,-407.54"/>
<polygon fill="black" stroke="black" points="109.36,-407.62 105.86,-397.62 102.36,-407.62 109.36,-407.62"/>
</g>
<!-- ll 0 -->
<g id="node13" class="node">
<title>ll 0</title>
<ellipse fill="none" stroke="black" cx="105.86" cy="-306" rx="27" ry="18"/>
<text text-anchor="middle" x="105.86" y="-300.95" font-family="Times New Roman,serif" font-size="14.00">ll 0</text>
</g>
<!-- ple 0&#45;&gt;ll 0 -->
<g id="edge12" class="edge">
<title>ple 0&#45;&gt;ll 0</title>
<path fill="none" stroke="black" d="M105.86,-359.7C105.86,-352.41 105.86,-343.73 105.86,-335.54"/>
<polygon fill="black" stroke="black" points="109.36,-335.62 105.86,-325.62 102.36,-335.62 109.36,-335.62"/>
</g>
<!-- false -->
<g id="node14" class="node">
<title>false</title>
<ellipse fill="none" stroke="black" cx="105.86" cy="-234" rx="28.32" ry="18"/>
<text text-anchor="middle" x="105.86" y="-228.95" font-family="Times New Roman,serif" font-size="14.00">false</text>
</g>
<!-- ll 0&#45;&gt;false -->
<g id="edge13" class="edge">
<title>ll 0&#45;&gt;false</title>
<path fill="none" stroke="black" d="M105.86,-287.7C105.86,-280.41 105.86,-271.73 105.86,-263.54"/>
<polygon fill="black" stroke="black" points="109.36,-263.62 105.86,-253.62 102.36,-263.62 109.36,-263.62"/>
</g>
<!-- s 2: ; -->
<g id="node18" class="node">
<title>s 2: ;</title>
<ellipse fill="none" stroke="black" cx="264.86" cy="-666" rx="29.34" ry="18"/>
<text text-anchor="middle" x="264.86" y="-660.95" font-family="Times New Roman,serif" font-size="14.00">s 2: ;</text>
</g>
<!-- t 2&#45;&gt;s 2: ; -->
<g id="edge17" class="edge">
<title>t 2&#45;&gt;s 2: ;</title>
<path fill="none" stroke="black" d="M293.27,-720.76C289.04,-712.75 283.82,-702.88 279.01,-693.79"/>
<polygon fill="black" stroke="black" points="282.12,-692.18 274.35,-684.97 275.93,-695.45 282.12,-692.18"/>
</g>
<!-- o 1 -->
<g id="node19" class="node">
<title>o 1</title>
<ellipse fill="none" stroke="black" cx="338.86" cy="-666" rx="27" ry="18"/>
<text text-anchor="middle" x="338.86" y="-660.95" font-family="Times New Roman,serif" font-size="14.00">o 1</text>
</g>
<!-- t 2&#45;&gt;o 1 -->
<g id="edge18" class="edge">
<title>t 2&#45;&gt;o 1</title>
<path fill="none" stroke="black" d="M310.44,-720.76C314.78,-712.55 320.16,-702.37 325.06,-693.09"/>
<polygon fill="black" stroke="black" points="328.03,-694.96 329.61,-684.49 321.85,-691.69 328.03,-694.96"/>
</g>
<!-- t 1 -->
<g id="node31" class="node">
<title>t 1</title>
<ellipse fill="none" stroke="black" cx="529.86" cy="-666" rx="27" ry="18"/>
<text text-anchor="middle" x="529.86" y="-660.95" font-family="Times New Roman,serif" font-size="14.00">t 1</text>
</g>
<!-- t 2&#45;&gt;t 1 -->
<g id="edge30" class="edge">
<title>t 2&#45;&gt;t 1</title>
<path fill="none" stroke="black" d="M326.26,-729.51C366.8,-717.06 448.18,-692.08 494.84,-677.75"/>
<polygon fill="black" stroke="black" points="495.65,-681.16 504.18,-674.88 493.6,-674.47 495.65,-681.16"/>
</g>
<!-- i 1: b -->
<g id="node20" class="node">
<title>i 1: b</title>
<ellipse fill="none" stroke="black" cx="257.86" cy="-594" rx="30.37" ry="18"/>
<text text-anchor="middle" x="257.86" y="-588.95" font-family="Times New Roman,serif" font-size="14.00">i 1: b</text>
</g>
<!-- o 1&#45;&gt;i 1: b -->
<g id="edge19" class="edge">
<title>o 1&#45;&gt;i 1: b</title>
<path fill="none" stroke="black" d="M322.85,-651.17C311.46,-641.33 295.94,-627.91 282.91,-616.66"/>
<polygon fill="black" stroke="black" points="285.38,-614.16 275.53,-610.27 280.8,-619.46 285.38,-614.16"/>
</g>
<!-- s 3: = -->
<g id="node21" class="node">
<title>s 3: =</title>
<ellipse fill="none" stroke="black" cx="338.86" cy="-594" rx="32.41" ry="18"/>
<text text-anchor="middle" x="338.86" y="-588.95" font-family="Times New Roman,serif" font-size="14.00">s 3: =</text>
</g>
<!-- o 1&#45;&gt;s 3: = -->
<g id="edge20" class="edge">
<title>o 1&#45;&gt;s 3: =</title>
<path fill="none" stroke="black" d="M338.86,-647.7C338.86,-640.41 338.86,-631.73 338.86,-623.54"/>
<polygon fill="black" stroke="black" points="342.36,-623.62 338.86,-613.62 335.36,-623.62 342.36,-623.62"/>
</g>
<!-- e 1 -->
<g id="node22" class="node">
<title>e 1</title>
<ellipse fill="none" stroke="black" cx="415.86" cy="-594" rx="27" ry="18"/>
<text text-anchor="middle" x="415.86" y="-588.95" font-family="Times New Roman,serif" font-size="14.00">e 1</text>
</g>
<!-- o 1&#45;&gt;e 1 -->
<g id="edge21" class="edge">
<title>o 1&#45;&gt;e 1</title>
<path fill="none" stroke="black" d="M354.44,-650.83C365.19,-641.06 379.69,-627.88 391.9,-616.78"/>
<polygon fill="black" stroke="black" points="394.13,-619.48 399.18,-610.16 389.42,-614.3 394.13,-619.48"/>
</g>
<!-- le 1 -->
<g id="node23" class="node">
<title>le 1</title>
<ellipse fill="none" stroke="black" cx="413.86" cy="-522" rx="27" ry="18"/>
<text text-anchor="middle" x="413.86" y="-516.95" font-family="Times New Roman,serif" font-size="14.00">le 1</text>
</g>
<!-- e 1&#45;&gt;le 1 -->
<g id="edge22" class="edge">
<title>e 1&#45;&gt;le 1</title>
<path fill="none" stroke="black" d="M415.36,-575.7C415.15,-568.41 414.9,-559.73 414.67,-551.54"/>
<polygon fill="black" stroke="black" points="418.17,-551.51 414.39,-541.62 411.17,-551.71 418.17,-551.51"/>
</g>
<!-- lm 1 -->
<g id="node24" class="node">
<title>lm 1</title>
<ellipse fill="none" stroke="black" cx="392.86" cy="-450" rx="28.32" ry="18"/>
<text text-anchor="middle" x="392.86" y="-444.95" font-family="Times New Roman,serif" font-size="14.00">lm 1</text>
</g>
<!-- le 1&#45;&gt;lm 1 -->
<g id="edge23" class="edge">
<title>le 1&#45;&gt;lm 1</title>
<path fill="none" stroke="black" d="M408.77,-504.05C406.48,-496.4 403.7,-487.16 401.12,-478.56"/>
<polygon fill="black" stroke="black" points="404.55,-477.81 398.33,-469.24 397.85,-479.82 404.55,-477.81"/>
</g>
<!-- le1 1 -->
<g id="node30" class="node">
<title>le1 1</title>
<ellipse fill="none" stroke="black" cx="468.86" cy="-450" rx="29.34" ry="18"/>
<text text-anchor="middle" x="468.86" y="-444.95" font-family="Times New Roman,serif" font-size="14.00">le1 1</text>
</g>
<!-- le 1&#45;&gt;le1 1 -->
<g id="edge29" class="edge">
<title>le 1&#45;&gt;le1 1</title>
<path fill="none" stroke="black" d="M426.06,-505.46C432.97,-496.67 441.76,-485.48 449.58,-475.53"/>
<polygon fill="black" stroke="black" points="452.32,-477.71 455.75,-467.68 446.82,-473.38 452.32,-477.71"/>
</g>
<!-- sle 1 -->
<g id="node25" class="node">
<title>sle 1</title>
<ellipse fill="none" stroke="black" cx="343.86" cy="-378" rx="28.32" ry="18"/>
<text text-anchor="middle" x="343.86" y="-372.95" font-family="Times New Roman,serif" font-size="14.00">sle 1</text>
</g>
<!-- lm 1&#45;&gt;sle 1 -->
<g id="edge24" class="edge">
<title>lm 1&#45;&gt;sle 1</title>
<path fill="none" stroke="black" d="M381.74,-433.12C375.72,-424.52 368.16,-413.72 361.37,-404.02"/>
<polygon fill="black" stroke="black" points="364.4,-402.25 355.8,-396.06 358.67,-406.26 364.4,-402.25"/>
</g>
<!-- lm1 1 -->
<g id="node29" class="node">
<title>lm1 1</title>
<ellipse fill="none" stroke="black" cx="422.86" cy="-378" rx="32.93" ry="18"/>
<text text-anchor="middle" x="422.86" y="-372.95" font-family="Times New Roman,serif" font-size="14.00">lm1 1</text>
</g>
<!-- lm 1&#45;&gt;lm1 1 -->
<g id="edge28" class="edge">
<title>lm 1&#45;&gt;lm1 1</title>
<path fill="none" stroke="black" d="M399.97,-432.41C403.28,-424.68 407.31,-415.27 411.06,-406.52"/>
<polygon fill="black" stroke="black" points="414.27,-407.92 414.99,-397.35 407.84,-405.16 414.27,-407.92"/>
</g>
<!-- ple 1 -->
<g id="node26" class="node">
<title>ple 1</title>
<ellipse fill="none" stroke="black" cx="343.86" cy="-306" rx="29.34" ry="18"/>
<text text-anchor="middle" x="343.86" y="-300.95" font-family="Times New Roman,serif" font-size="14.00">ple 1</text>
</g>
<!-- sle 1&#45;&gt;ple 1 -->
<g id="edge25" class="edge">
<title>sle 1&#45;&gt;ple 1</title>
<path fill="none" stroke="black" d="M343.86,-359.7C343.86,-352.41 343.86,-343.73 343.86,-335.54"/>
<polygon fill="black" stroke="black" points="347.36,-335.62 343.86,-325.62 340.36,-335.62 347.36,-335.62"/>
</g>
<!-- ll 1 -->
<g id="node27" class="node">
<title>ll 1</title>
<ellipse fill="none" stroke="black" cx="343.86" cy="-234" rx="27" ry="18"/>
<text text-anchor="middle" x="343.86" y="-228.95" font-family="Times New Roman,serif" font-size="14.00">ll 1</text>
</g>
<!-- ple 1&#45;&gt;ll 1 -->
<g id="edge26" class="edge">
<title>ple 1&#45;&gt;ll 1</title>
<path fill="none" stroke="black" d="M343.86,-287.7C343.86,-280.41 343.86,-271.73 343.86,-263.54"/>
<polygon fill="black" stroke="black" points="347.36,-263.62 343.86,-253.62 340.36,-263.62 347.36,-263.62"/>
</g>
<!-- true -->
<g id="node28" class="node">
<title>true</title>
<ellipse fill="none" stroke="black" cx="343.86" cy="-162" rx="27" ry="18"/>
<text text-anchor="middle" x="343.86" y="-156.95" font-family="Times New Roman,serif" font-size="14.00">true</text>
</g>
<!-- ll 1&#45;&gt;true -->
<g id="edge27" class="edge">
<title>ll 1&#45;&gt;true</title>
<path fill="none" stroke="black" d="M343.86,-215.7C343.86,-208.41 343.86,-199.73 343.86,-191.54"/>
<polygon fill="black" stroke="black" points="347.36,-191.62 343.86,-181.62 340.36,-191.62 347.36,-191.62"/>
</g>
<!-- s 4: ; -->
<g id="node32" class="node">
<title>s 4: ;</title>
<ellipse fill="none" stroke="black" cx="492.86" cy="-594" rx="29.34" ry="18"/>
<text text-anchor="middle" x="492.86" y="-588.95" font-family="Times New Roman,serif" font-size="14.00">s 4: ;</text>
</g>
<!-- t 1&#45;&gt;s 4: ; -->
<g id="edge31" class="edge">
<title>t 1&#45;&gt;s 4: ;</title>
<path fill="none" stroke="black" d="M521.27,-648.76C517.04,-640.75 511.82,-630.88 507.01,-621.79"/>
<polygon fill="black" stroke="black" points="510.12,-620.18 502.35,-612.97 503.93,-623.45 510.12,-620.18"/>
</g>
<!-- o 2 -->
<g id="node33" class="node">
<title>o 2</title>
<ellipse fill="none" stroke="black" cx="566.86" cy="-594" rx="27" ry="18"/>
<text text-anchor="middle" x="566.86" y="-588.95" font-family="Times New Roman,serif" font-size="14.00">o 2</text>
</g>
<!-- t 1&#45;&gt;o 2 -->
<g id="edge32" class="edge">
<title>t 1&#45;&gt;o 2</title>
<path fill="none" stroke="black" d="M538.44,-648.76C542.78,-640.55 548.16,-630.37 553.06,-621.09"/>
<polygon fill="black" stroke="black" points="556.03,-622.96 557.61,-612.49 549.85,-619.69 556.03,-622.96"/>
</g>
<!-- t 0 -->
<g id="node57" class="node">
<title>t 0</title>
<ellipse fill="none" stroke="black" cx="638.86" cy="-594" rx="27" ry="18"/>
<text text-anchor="middle" x="638.86" y="-588.95" font-family="Times New Roman,serif" font-size="14.00">t 0</text>
</g>
<!-- t 1&#45;&gt;t 0 -->
<g id="edge56" class="edge">
<title>t 1&#45;&gt;t 0</title>
<path fill="none" stroke="black" d="M548.84,-652.81C565.88,-641.87 591.12,-625.66 610.54,-613.19"/>
<polygon fill="black" stroke="black" points="612.29,-616.22 618.81,-607.87 608.51,-610.33 612.29,-616.22"/>
</g>
<!-- i 2: c -->
<g id="node34" class="node">
<title>i 2: c</title>
<ellipse fill="none" stroke="black" cx="488.86" cy="-522" rx="29.86" ry="18"/>
<text text-anchor="middle" x="488.86" y="-516.95" font-family="Times New Roman,serif" font-size="14.00">i 2: c</text>
</g>
<!-- o 2&#45;&gt;i 2: c -->
<g id="edge33" class="edge">
<title>o 2&#45;&gt;i 2: c</title>
<path fill="none" stroke="black" d="M551.45,-579.17C540.66,-569.49 526.01,-556.34 513.6,-545.2"/>
<polygon fill="black" stroke="black" points="515.95,-542.61 506.17,-538.53 511.27,-547.82 515.95,-542.61"/>
</g>
<!-- s 5: = -->
<g id="node35" class="node">
<title>s 5: =</title>
<ellipse fill="none" stroke="black" cx="568.86" cy="-522" rx="32.41" ry="18"/>
<text text-anchor="middle" x="568.86" y="-516.95" font-family="Times New Roman,serif" font-size="14.00">s 5: =</text>
</g>
<!-- o 2&#45;&gt;s 5: = -->
<g id="edge34" class="edge">
<title>o 2&#45;&gt;s 5: =</title>
<path fill="none" stroke="black" d="M567.35,-575.7C567.56,-568.41 567.81,-559.73 568.04,-551.54"/>
<polygon fill="black" stroke="black" points="571.54,-551.71 568.32,-541.62 564.54,-551.51 571.54,-551.71"/>
</g>
<!-- e 2 -->
<g id="node36" class="node">
<title>e 2</title>
<ellipse fill="none" stroke="black" cx="645.86" cy="-522" rx="27" ry="18"/>
<text text-anchor="middle" x="645.86" y="-516.95" font-family="Times New Roman,serif" font-size="14.00">e 2</text>
</g>
<!-- o 2&#45;&gt;e 2 -->
<g id="edge35" class="edge">
<title>o 2&#45;&gt;e 2</title>
<path fill="none" stroke="black" d="M582.46,-579.17C593.64,-569.26 608.91,-555.73 621.67,-544.43"/>
<polygon fill="black" stroke="black" points="623.71,-547.3 628.88,-538.04 619.07,-542.06 623.71,-547.3"/>
</g>
<!-- le 2 -->
<g id="node37" class="node">
<title>le 2</title>
<ellipse fill="none" stroke="black" cx="645.86" cy="-450" rx="27" ry="18"/>
<text text-anchor="middle" x="645.86" y="-444.95" font-family="Times New Roman,serif" font-size="14.00">le 2</text>
</g>
<!-- e 2&#45;&gt;le 2 -->
<g id="edge36" class="edge">
<title>e 2&#45;&gt;le 2</title>
<path fill="none" stroke="black" d="M645.86,-503.7C645.86,-496.41 645.86,-487.73 645.86,-479.54"/>
<polygon fill="black" stroke="black" points="649.36,-479.62 645.86,-469.62 642.36,-479.62 649.36,-479.62"/>
</g>
<!-- lm 2 -->
<g id="node38" class="node">
<title>lm 2</title>
<ellipse fill="none" stroke="black" cx="615.86" cy="-378" rx="28.32" ry="18"/>
<text text-anchor="middle" x="615.86" y="-372.95" font-family="Times New Roman,serif" font-size="14.00">lm 2</text>
</g>
<!-- le 2&#45;&gt;lm 2 -->
<g id="edge37" class="edge">
<title>le 2&#45;&gt;lm 2</title>
<path fill="none" stroke="black" d="M638.75,-432.41C635.35,-424.48 631.19,-414.78 627.36,-405.84"/>
<polygon fill="black" stroke="black" points="630.67,-404.67 623.51,-396.86 624.23,-407.43 630.67,-404.67"/>
</g>
<!-- le1 3 -->
<g id="node44" class="node">
<title>le1 3</title>
<ellipse fill="none" stroke="black" cx="734.86" cy="-378" rx="29.34" ry="18"/>
<text text-anchor="middle" x="734.86" y="-372.95" font-family="Times New Roman,serif" font-size="14.00">le1 3</text>
</g>
<!-- le 2&#45;&gt;le1 3 -->
<g id="edge43" class="edge">
<title>le 2&#45;&gt;le1 3</title>
<path fill="none" stroke="black" d="M662.6,-435.83C675.52,-425.67 693.65,-411.41 708.52,-399.71"/>
<polygon fill="black" stroke="black" points="710.39,-402.69 716.09,-393.76 706.06,-397.19 710.39,-402.69"/>
</g>
<!-- sle 2 -->
<g id="node39" class="node">
<title>sle 2</title>
<ellipse fill="none" stroke="black" cx="536.86" cy="-306" rx="28.32" ry="18"/>
<text text-anchor="middle" x="536.86" y="-300.95" font-family="Times New Roman,serif" font-size="14.00">sle 2</text>
</g>
<!-- lm 2&#45;&gt;sle 2 -->
<g id="edge38" class="edge">
<title>lm 2&#45;&gt;sle 2</title>
<path fill="none" stroke="black" d="M599.87,-362.83C588.73,-352.97 573.68,-339.63 561.07,-328.46"/>
<polygon fill="black" stroke="black" points="563.76,-326.16 553.95,-322.15 559.11,-331.4 563.76,-326.16"/>
</g>
<!-- lm1 2 -->
<g id="node43" class="node">
<title>lm1 2</title>
<ellipse fill="none" stroke="black" cx="615.86" cy="-306" rx="32.93" ry="18"/>
<text text-anchor="middle" x="615.86" y="-300.95" font-family="Times New Roman,serif" font-size="14.00">lm1 2</text>
</g>
<!-- lm 2&#45;&gt;lm1 2 -->
<g id="edge42" class="edge">
<title>lm 2&#45;&gt;lm1 2</title>
<path fill="none" stroke="black" d="M615.86,-359.7C615.86,-352.41 615.86,-343.73 615.86,-335.54"/>
<polygon fill="black" stroke="black" points="619.36,-335.62 615.86,-325.62 612.36,-335.62 619.36,-335.62"/>
</g>
<!-- s 6: ~ -->
<g id="node40" class="node">
<title>s 6: ~</title>
<ellipse fill="none" stroke="black" cx="459.86" cy="-234" rx="31.9" ry="18"/>
<text text-anchor="middle" x="459.86" y="-228.95" font-family="Times New Roman,serif" font-size="14.00">s 6: ~</text>
</g>
<!-- sle 2&#45;&gt;s 6: ~ -->
<g id="edge39" class="edge">
<title>sle 2&#45;&gt;s 6: ~</title>
<path fill="none" stroke="black" d="M521.27,-290.83C510.74,-281.25 496.6,-268.4 484.54,-257.44"/>
<polygon fill="black" stroke="black" points="487.09,-255.02 477.33,-250.89 482.38,-260.2 487.09,-255.02"/>
</g>
<!-- ple 2 -->
<g id="node41" class="node">
<title>ple 2</title>
<ellipse fill="none" stroke="black" cx="538.86" cy="-234" rx="29.34" ry="18"/>
<text text-anchor="middle" x="538.86" y="-228.95" font-family="Times New Roman,serif" font-size="14.00">ple 2</text>
</g>
<!-- sle 2&#45;&gt;ple 2 -->
<g id="edge40" class="edge">
<title>sle 2&#45;&gt;ple 2</title>
<path fill="none" stroke="black" d="M537.35,-287.7C537.56,-280.41 537.81,-271.73 538.04,-263.54"/>
<polygon fill="black" stroke="black" points="541.54,-263.71 538.32,-253.62 534.54,-263.51 541.54,-263.71"/>
</g>
<!-- i 3: a -->
<g id="node42" class="node">
<title>i 3: a</title>
<ellipse fill="none" stroke="black" cx="538.86" cy="-162" rx="29.86" ry="18"/>
<text text-anchor="middle" x="538.86" y="-156.95" font-family="Times New Roman,serif" font-size="14.00">i 3: a</text>
</g>
<!-- ple 2&#45;&gt;i 3: a -->
<g id="edge41" class="edge">
<title>ple 2&#45;&gt;i 3: a</title>
<path fill="none" stroke="black" d="M538.86,-215.7C538.86,-208.41 538.86,-199.73 538.86,-191.54"/>
<polygon fill="black" stroke="black" points="542.36,-191.62 538.86,-181.62 535.36,-191.62 542.36,-191.62"/>
</g>
<!-- s 7: ! -->
<g id="node45" class="node">
<title>s 7: !</title>
<ellipse fill="none" stroke="black" cx="696.86" cy="-306" rx="29.86" ry="18"/>
<text text-anchor="middle" x="696.86" y="-300.95" font-family="Times New Roman,serif" font-size="14.00">s 7: !</text>
</g>
<!-- le1 3&#45;&gt;s 7: ! -->
<g id="edge44" class="edge">
<title>le1 3&#45;&gt;s 7: !</title>
<path fill="none" stroke="black" d="M725.85,-360.41C721.5,-352.39 716.16,-342.57 711.26,-333.54"/>
<polygon fill="black" stroke="black" points="714.37,-331.92 706.52,-324.8 708.21,-335.26 714.37,-331.92"/>
</g>
<!-- lm 3 -->
<g id="node46" class="node">
<title>lm 3</title>
<ellipse fill="none" stroke="black" cx="772.86" cy="-306" rx="28.32" ry="18"/>
<text text-anchor="middle" x="772.86" y="-300.95" font-family="Times New Roman,serif" font-size="14.00">lm 3</text>
</g>
<!-- le1 3&#45;&gt;lm 3 -->
<g id="edge45" class="edge">
<title>le1 3&#45;&gt;lm 3</title>
<path fill="none" stroke="black" d="M743.86,-360.41C748.21,-352.39 753.55,-342.57 758.45,-333.54"/>
<polygon fill="black" stroke="black" points="761.5,-335.26 763.19,-324.8 755.35,-331.92 761.5,-335.26"/>
</g>
<!-- le1 2 -->
<g id="node56" class="node">
<title>le1 2</title>
<ellipse fill="none" stroke="black" cx="848.86" cy="-306" rx="29.34" ry="18"/>
<text text-anchor="middle" x="848.86" y="-300.95" font-family="Times New Roman,serif" font-size="14.00">le1 2</text>
</g>
<!-- le1 3&#45;&gt;le1 2 -->
<g id="edge55" class="edge">
<title>le1 3&#45;&gt;le1 2</title>
<path fill="none" stroke="black" d="M754.97,-364.65C772.69,-353.77 798.74,-337.77 818.91,-325.39"/>
<polygon fill="black" stroke="black" points="820.57,-328.47 827.26,-320.26 816.91,-322.51 820.57,-328.47"/>
</g>
<!-- sle 3 -->
<g id="node47" class="node">
<title>sle 3</title>
<ellipse fill="none" stroke="black" cx="695.86" cy="-234" rx="28.32" ry="18"/>
<text text-anchor="middle" x="695.86" y="-228.95" font-family="Times New Roman,serif" font-size="14.00">sle 3</text>
</g>
<!-- lm 3&#45;&gt;sle 3 -->
<g id="edge46" class="edge">
<title>lm 3&#45;&gt;sle 3</title>
<path fill="none" stroke="black" d="M757.27,-290.83C746.59,-281.13 732.22,-268.06 720.06,-257"/>
<polygon fill="black" stroke="black" points="722.55,-254.54 712.8,-250.4 717.84,-259.72 722.55,-254.54"/>
</g>
<!-- lm1 4 -->
<g id="node50" class="node">
<title>lm1 4</title>
<ellipse fill="none" stroke="black" cx="794.86" cy="-234" rx="32.93" ry="18"/>
<text text-anchor="middle" x="794.86" y="-228.95" font-family="Times New Roman,serif" font-size="14.00">lm1 4</text>
</g>
<!-- lm 3&#45;&gt;lm1 4 -->
<g id="edge49" class="edge">
<title>lm 3&#45;&gt;lm1 4</title>
<path fill="none" stroke="black" d="M778.18,-288.05C780.59,-280.4 783.49,-271.16 786.19,-262.56"/>
<polygon fill="black" stroke="black" points="789.47,-263.82 789.13,-253.23 782.79,-261.72 789.47,-263.82"/>
</g>
<!-- ple 3 -->
<g id="node48" class="node">
<title>ple 3</title>
<ellipse fill="none" stroke="black" cx="653.86" cy="-162" rx="29.34" ry="18"/>
<text text-anchor="middle" x="653.86" y="-156.95" font-family="Times New Roman,serif" font-size="14.00">ple 3</text>
</g>
<!-- sle 3&#45;&gt;ple 3 -->
<g id="edge47" class="edge">
<title>sle 3&#45;&gt;ple 3</title>
<path fill="none" stroke="black" d="M686.11,-216.76C681.13,-208.46 674.95,-198.15 669.33,-188.79"/>
<polygon fill="black" stroke="black" points="672.47,-187.22 664.32,-180.45 666.47,-190.82 672.47,-187.22"/>
</g>
<!-- i 4: a -->
<g id="node49" class="node">
<title>i 4: a</title>
<ellipse fill="none" stroke="black" cx="653.86" cy="-90" rx="29.86" ry="18"/>
<text text-anchor="middle" x="653.86" y="-84.95" font-family="Times New Roman,serif" font-size="14.00">i 4: a</text>
</g>
<!-- ple 3&#45;&gt;i 4: a -->
<g id="edge48" class="edge">
<title>ple 3&#45;&gt;i 4: a</title>
<path fill="none" stroke="black" d="M653.86,-143.7C653.86,-136.41 653.86,-127.73 653.86,-119.54"/>
<polygon fill="black" stroke="black" points="657.36,-119.62 653.86,-109.62 650.36,-119.62 657.36,-119.62"/>
</g>
<!-- s 8: &amp; -->
<g id="node51" class="node">
<title>s 8: &amp;</title>
<ellipse fill="none" stroke="black" cx="735.86" cy="-162" rx="34.46" ry="18"/>
<text text-anchor="middle" x="735.86" y="-156.95" font-family="Times New Roman,serif" font-size="14.00">s 8: &amp;</text>
</g>
<!-- lm1 4&#45;&gt;s 8: &amp; -->
<g id="edge50" class="edge">
<title>lm1 4&#45;&gt;s 8: &amp;</title>
<path fill="none" stroke="black" d="M781.47,-217.12C774.07,-208.34 764.73,-197.26 756.43,-187.42"/>
<polygon fill="black" stroke="black" points="759.29,-185.37 750.17,-179.98 753.93,-189.88 759.29,-185.37"/>
</g>
<!-- sle 4 -->
<g id="node52" class="node">
<title>sle 4</title>
<ellipse fill="none" stroke="black" cx="816.86" cy="-162" rx="28.32" ry="18"/>
<text text-anchor="middle" x="816.86" y="-156.95" font-family="Times New Roman,serif" font-size="14.00">sle 4</text>
</g>
<!-- lm1 4&#45;&gt;sle 4 -->
<g id="edge51" class="edge">
<title>lm1 4&#45;&gt;sle 4</title>
<path fill="none" stroke="black" d="M800.18,-216.05C802.59,-208.4 805.49,-199.16 808.19,-190.56"/>
<polygon fill="black" stroke="black" points="811.47,-191.82 811.13,-181.23 804.79,-189.72 811.47,-191.82"/>
</g>
<!-- lm1 3 -->
<g id="node55" class="node">
<title>lm1 3</title>
<ellipse fill="none" stroke="black" cx="895.86" cy="-162" rx="32.93" ry="18"/>
<text text-anchor="middle" x="895.86" y="-156.95" font-family="Times New Roman,serif" font-size="14.00">lm1 3</text>
</g>
<!-- lm1 4&#45;&gt;lm1 3 -->
<g id="edge54" class="edge">
<title>lm1 4&#45;&gt;lm1 3</title>
<path fill="none" stroke="black" d="M814.81,-219.17C829.61,-208.91 850.02,-194.77 866.66,-183.24"/>
<polygon fill="black" stroke="black" points="868.47,-186.24 874.7,-177.66 864.49,-180.48 868.47,-186.24"/>
</g>
<!-- ple 4 -->
<g id="node53" class="node">
<title>ple 4</title>
<ellipse fill="none" stroke="black" cx="816.86" cy="-90" rx="29.34" ry="18"/>
<text text-anchor="middle" x="816.86" y="-84.95" font-family="Times New Roman,serif" font-size="14.00">ple 4</text>
</g>
<!-- sle 4&#45;&gt;ple 4 -->
<g id="edge52" class="edge">
<title>sle 4&#45;&gt;ple 4</title>
<path fill="none" stroke="black" d="M816.86,-143.7C816.86,-136.41 816.86,-127.73 816.86,-119.54"/>
<polygon fill="black" stroke="black" points="820.36,-119.62 816.86,-109.62 813.36,-119.62 820.36,-119.62"/>
</g>
<!-- i 5: b -->
<g id="node54" class="node">
<title>i 5: b</title>
<ellipse fill="none" stroke="black" cx="816.86" cy="-18" rx="30.37" ry="18"/>
<text text-anchor="middle" x="816.86" y="-12.95" font-family="Times New Roman,serif" font-size="14.00">i 5: b</text>
</g>
<!-- ple 4&#45;&gt;i 5: b -->
<g id="edge53" class="edge">
<title>ple 4&#45;&gt;i 5: b</title>
<path fill="none" stroke="black" d="M816.86,-71.7C816.86,-64.41 816.86,-55.73 816.86,-47.54"/>
<polygon fill="black" stroke="black" points="820.36,-47.62 816.86,-37.62 813.36,-47.62 820.36,-47.62"/>
</g>
</g>
</svg>
